<svg width="31" height="30" viewBox="0 0 31 30" fill="none"
    xmlns="http://www.w3.org/2000/svg">
    <g opacity="0.75">
        <path d="M1.27195 3.51376C1.40496 2.22583 2.24937 1.20636 3.51578 0.93676C5.51472 0.511214 9.28284 0 15.8505 0C22.4181 0 26.1862 0.511214 28.1852 0.93676C29.4516 1.20636 30.296 2.22583 30.429 3.51377C30.6262 5.42339 30.8505 8.92958 30.8505 15C30.8505 21.0704 30.6262 24.5766 30.429 26.4862C30.296 27.7742 29.4516 28.7936 28.1851 29.0632C26.1862 29.4888 22.4181 30 15.8505 30C9.28284 30 5.51472 29.4888 3.51578 29.0632C2.24937 28.7936 1.40496 27.7742 1.27195 26.4862C1.07474 24.5766 0.850464 21.0704 0.850464 15C0.850464 8.92958 1.07474 5.42339 1.27195 3.51376Z" fill="#98C8FF"/>
        <path fill-rule="evenodd" clip-rule="evenodd" d="M30.7046 7.5H0.995483C1.075 5.72741 1.17642 4.43486 1.27154 3.51376C1.40454 2.22583 2.24896 1.20636 3.51536 0.93676C5.51431 0.511214 9.28243 0 15.8501 0C22.4177 0 26.1858 0.511214 28.1847 0.93676C29.4511 1.20636 30.2956 2.22583 30.4286 3.51377C30.5237 4.43486 30.6251 5.72741 30.7046 7.5Z" fill="#0578FF"/>
        <path d="M6.10046 13.5C6.10046 12.6716 6.77204 12 7.60046 12H9.10046C9.92889 12 10.6005 12.6716 10.6005 13.5V15C10.6005 15.8284 9.92889 16.5 9.10046 16.5H7.60046C6.77204 16.5 6.10046 15.8284 6.10046 15V13.5Z" fill="#0578FF"/>
        <path d="M6.10046 21C6.10046 20.1716 6.77204 19.5 7.60046 19.5H9.10046C9.92889 19.5 10.6005 20.1716 10.6005 21V22.5C10.6005 23.3284 9.92889 24 9.10046 24H7.60046C6.77204 24 6.10046 23.3284 6.10046 22.5V21Z" fill="#0578FF"/>
        <path d="M13.6005 13.5C13.6005 12.6716 14.272 12 15.1005 12H16.6005C17.4289 12 18.1005 12.6716 18.1005 13.5V15C18.1005 15.8284 17.4289 16.5 16.6005 16.5H15.1005C14.272 16.5 13.6005 15.8284 13.6005 15V13.5Z" fill="#0578FF"/>
        <path d="M13.6005 21C13.6005 20.1716 14.272 19.5 15.1005 19.5H16.6005C17.4289 19.5 18.1005 20.1716 18.1005 21V22.5C18.1005 23.3284 17.4289 24 16.6005 24H15.1005C14.272 24 13.6005 23.3284 13.6005 22.5V21Z" fill="#0578FF"/>
        <path d="M21.1005 13.5C21.1005 12.6716 21.772 12 22.6005 12H24.1005C24.9289 12 25.6005 12.6716 25.6005 13.5V15C25.6005 15.8284 24.9289 16.5 24.1005 16.5H22.6005C21.772 16.5 21.1005 15.8284 21.1005 15V13.5Z" fill="#0578FF"/>
    </g>
</svg>
