<svg width="21" height="21" viewBox="0 0 21 21" fill="none"
    xmlns="http://www.w3.org/2000/svg">
    <path d="M19.3358 8.99043C20.6671 7.65918 21.174 5.71288 20.0419 4.20868C19.665 3.70797 19.1929 3.15438 18.6028 2.56435C18.0128 1.97432 17.4592 1.50218 16.9585 1.12531C15.4543 -0.00684214 13.508 0.500119 12.1767 1.83136L1.25233 12.7558C1.0033 13.0048 0.832489 13.3204 0.791394 13.6702C0.692295 14.5136 0.563525 16.3912 0.806646 19.5341C0.840739 19.9748 1.19242 20.3265 1.63314 20.3605C4.77598 20.6037 6.65352 20.4749 7.497 20.3758C7.84677 20.3347 8.16232 20.1639 8.41135 19.9149L19.3358 8.99043Z" fill="#0578FF"/>
    <path d="M8.44711 19.8792C7.88598 19.0491 6.76006 17.5018 5.21277 15.9546C3.66548 14.4073 2.11818 13.2813 1.28807 12.7202L1.25233 12.756C1.0033 13.005 0.832489 13.3205 0.791394 13.6703C0.734303 14.1562 0.667365 14.9854 0.667358 16.2019C0.667358 16.2018 0.667358 16.202 0.667358 16.2019C0.667363 17.097 0.703601 18.2021 0.806646 19.5342C0.840739 19.9749 1.19242 20.3266 1.63314 20.3607C4.77598 20.6038 6.65352 20.475 7.497 20.3759C7.84677 20.3348 8.16232 20.164 8.41135 19.915L8.44711 19.8792Z" fill="#B7D8FF"/>
    <path d="M3.83813 20.4824C3.75839 20.3532 3.24523 19.5429 2.4349 18.7326C1.62456 17.9222 0.814215 17.4091 0.685059 17.3293C0.704996 17.981 0.743109 18.7147 0.806522 19.5345C0.840615 19.9752 1.19229 20.3269 1.63301 20.3609C2.45276 20.4244 3.18643 20.4625 3.83813 20.4824Z" fill="#0578FF"/>
</svg>
