<svg width="30" height="30" viewBox="0 0 30 30" fill="none"
    xmlns="http://www.w3.org/2000/svg">
    <rect width="30" height="30" rx="10" fill="#0578FF" fill-opacity="0.5"/>
    <path d="M14.0714 22.4394C13.4291 22.3484 13.0574 21.7791 13.0342 21.1308C13.0061 20.3498 12.9742 19.0579 12.9609 17.0391C10.9421 17.0258 9.65021 16.9939 8.86916 16.9658C8.22088 16.9426 7.6516 16.5709 7.56063 15.9286C7.52462 15.6743 7.5 15.3665 7.5 15C7.5 14.6335 7.52462 14.3257 7.56063 14.0714C7.6516 13.4291 8.22088 13.0574 8.86916 13.0342C9.65021 13.0061 10.9421 12.9742 12.9609 12.9609C12.9742 10.9421 13.0061 9.65021 13.0342 8.86916C13.0574 8.22088 13.4291 7.6516 14.0714 7.56063C14.3257 7.52462 14.6335 7.5 15 7.5C15.3665 7.5 15.6743 7.52462 15.9286 7.56063C16.5709 7.6516 16.9426 8.22088 16.9658 8.86916C16.9939 9.65021 17.0258 10.9421 17.0391 12.9609C19.0579 12.9742 20.3498 13.0061 21.1308 13.0342C21.7791 13.0574 22.3484 13.4291 22.4394 14.0714C22.4754 14.3257 22.5 14.6335 22.5 15C22.5 15.3665 22.4754 15.6743 22.4394 15.9286C22.3484 16.5709 21.7791 16.9426 21.1308 16.9658C20.3498 16.9939 19.0579 17.0258 17.0391 17.0391C17.0258 19.0579 16.9939 20.3498 16.9658 21.1308C16.9426 21.7791 16.5709 22.3484 15.9286 22.4394C15.6743 22.4754 15.3665 22.5 15 22.5C14.6335 22.5 14.3257 22.4754 14.0714 22.4394Z" fill="#0578FF"/>
</svg>
