<svg width="20" height="21" viewBox="0 0 20 21" fill="none"
    xmlns="http://www.w3.org/2000/svg">
    <path d="M1.83325 4.5H18.8333C18.1359 13.2171 17.6817 17.071 17.4706 18.6052C17.3899 19.192 17.0795 19.7 16.5149 19.8788C15.6209 20.1618 13.8226 20.5 10.3333 20.5C6.84392 20.5 5.04562 20.1618 4.15161 19.8788C3.58696 19.7 3.27659 19.192 3.19588 18.6052C2.98483 17.071 2.53062 13.2171 1.83325 4.5Z" fill="#FF6060" fill-opacity="0.5"/>
    <path d="M9.27477 0.5C8.41391 0.5 7.64963 1.05086 7.3774 1.86754L7.14987 2.55014C5.51929 2.60344 4.23155 2.69146 3.28667 2.77558C2.097 2.8815 1.14627 3.74949 0.85659 4.90821L0.722753 5.44356C0.495401 6.35297 0.980781 7.15955 1.91419 7.24592C3.27951 7.37227 5.78471 7.5 10.3336 7.5C14.8826 7.5 17.3878 7.37227 18.7531 7.24592C19.6865 7.15955 20.1719 6.35297 19.9445 5.44356L19.8107 4.90821C19.521 3.74949 18.5703 2.8815 17.3806 2.77558C16.4356 2.69145 15.1476 2.60341 13.5166 2.55012L13.2891 1.86754C13.0169 1.05086 12.2526 0.5 11.3917 0.5H9.27477Z" fill="#FF6060"/>
    <path d="M7.40498 10C6.82611 10 6.36881 10.4911 6.41006 11.0685L6.76756 16.0736C6.80485 16.5956 7.23918 17 7.76249 17C8.34135 17 8.79865 16.5089 8.75741 15.9315L8.3999 10.9264C8.36262 10.4044 7.92829 10 7.40498 10Z" fill="#FF6060"/>
    <path d="M13.2625 10C12.7392 10 12.3048 10.4044 12.2676 10.9264L11.9101 15.9315C11.8688 16.5089 12.3261 17 12.905 17C13.4283 17 13.8626 16.5956 13.8999 16.0736L14.2574 11.0685C14.2987 10.4911 13.8414 10 13.2625 10Z" fill="#FF6060"/>
</svg>
